<?xml version="1.0" encoding="utf-8"?>
<!-- Generator: Adobe Illustrator 24.1.3, SVG Export Plug-In . SVG Version: 6.00 Build 0)  -->
<svg version="1.1" id="Warstwa_1" xmlns="http://www.w3.org/2000/svg" xmlns:xlink="http://www.w3.org/1999/xlink" x="0px" y="0px"
	 viewBox="0 0 482 56" style="enable-background:new 0 0 482 56;" xml:space="preserve">
<style type="text/css">
	.st0{fill:#1D1D1B;}
	.st1{fill:#008A4A;}
	.st2{fill:#FFE500;}
	.st3{fill:#005F27;}
</style>
<g>
	<polygon class="st0" points="240.7,47.43 240.7,40.74 6.84,40.74 6.84,47.43 240.7,47.43 	"/>
	<polygon class="st1" points="240.7,54.13 240.7,47.43 6.84,47.43 6.84,54.13 240.7,54.13 	"/>
	<polygon class="st1" points="474.56,47.43 474.56,40.74 240.7,40.74 240.7,47.43 474.56,47.43 	"/>
	<polygon class="st2" points="474.56,54.13 474.56,47.43 240.7,47.43 240.7,54.13 474.56,54.13 	"/>
	<path class="st3" d="M19.68,23.54c0-4.67-7.17-3.99-7.17-6.7c0-0.91,0.93-1.73,2.45-1.73c1.2,0,2.47,0.62,3.54,1.32l0.79-2.01
		c-1.57-1.23-2.72-1.82-4.42-1.82c-2.68,0-4.99,1.82-4.99,4.47c0,5.08,7.15,3.97,7.15,6.86c0,1.23-1.45,1.85-2.59,1.85
		c-1.29,0-2.54-0.52-4.06-1.35l-0.29,2.26c1.41,1.09,2.63,1.62,4.26,1.62C17.07,28.31,19.68,26.66,19.68,23.54"/>
	<path class="st3" d="M27.12,22.99h5.03v5.06h2.54v-9.62c0-3.76-2.27-5.83-5.06-5.83c-2.77,0-5.04,2.07-5.04,5.83v9.62h2.52V22.99
		L27.12,22.99z M32.16,20.47h-5.03v-2.03c0-2.23,1.13-3.3,2.52-3.3c1.38,0,2.52,1.07,2.52,3.3V20.47L32.16,20.47z"/>
	<polygon class="st3" points="43.37,20.71 48.61,28.05 51.69,28.05 46.13,20.28 51.44,12.85 48.36,12.85 43.37,19.85 43.37,12.85 
		40.85,12.85 40.85,28.05 43.37,28.05 43.37,20.71 	"/>
	<path class="st3" d="M65.9,23.54c0-4.67-7.17-3.99-7.17-6.7c0-0.91,0.93-1.73,2.45-1.73c1.2,0,2.47,0.62,3.54,1.32l0.79-2.01
		c-1.57-1.23-2.72-1.82-4.42-1.82c-2.68,0-4.99,1.82-4.99,4.47c0,5.08,7.15,3.97,7.15,6.86c0,1.23-1.45,1.85-2.59,1.85
		c-1.29,0-2.54-0.52-4.06-1.35l-0.29,2.26c1.41,1.09,2.63,1.62,4.26,1.62C63.29,28.31,65.9,26.66,65.9,23.54"/>
	<path class="st3" d="M73.25,20.47c0-2.92,0.93-5.33,2.61-5.33c1.7,0,2.63,2.42,2.63,5.33c0,2.89-0.93,5.31-2.63,5.31
		C74.18,25.78,73.25,23.36,73.25,20.47 M70.57,20.47c0,4.31,1.88,7.84,5.28,7.84c3.4,0,5.31-3.53,5.31-7.84
		c0-4.31-1.9-7.86-5.31-7.86C72.46,12.6,70.57,16.16,70.57,20.47L70.57,20.47z"/>
	<polygon class="st3" points="94.89,22.56 88.95,12.85 87.07,12.85 87.07,28.05 89.34,28.05 89.34,18.35 95.26,28.05 97.16,28.05 
		97.16,12.85 94.89,12.85 94.89,22.56 	"/>
	<polygon class="st3" points="105.83,25.53 103.31,25.53 103.31,28.05 110.87,28.05 110.87,25.53 108.35,25.53 108.35,15.38 
		110.87,15.38 110.87,12.85 103.31,12.85 103.31,15.38 105.83,15.38 105.83,25.53 	"/>
	<path class="st3" d="M119.56,22.99h5.04v5.06h2.54v-9.62c0-3.76-2.27-5.83-5.06-5.83c-2.77,0-5.04,2.07-5.04,5.83v9.62h2.52V22.99
		L119.56,22.99z M124.59,20.47h-5.04v-2.03c0-2.23,1.13-3.3,2.52-3.3c1.38,0,2.52,1.07,2.52,3.3V20.47L124.59,20.47z"/>
	<path class="st3" d="M137.14,26.46c0-1-0.84-1.85-1.84-1.85c-1,0-1.84,0.84-1.84,1.85c0,1,0.84,1.85,1.84,1.85
		C136.31,28.31,137.14,27.46,137.14,26.46"/>
	<polygon class="st3" points="346.95,10.52 351.09,5.08 352.98,6.98 347.58,11.15 346.95,10.52 	"/>
	<polygon class="st3" points="150.03,20.76 155.24,28.06 158.31,28.06 152.78,20.33 158.07,12.93 155,12.93 150.03,19.89 
		150.03,12.93 147.52,12.93 147.52,28.06 150.03,28.06 150.03,20.76 	"/>
	<path class="st3" d="M168.46,20.51h-2.26v-5.06c0,0,2.01,0,2.26,0c1.38,0,2.5,1.13,2.5,2.54
		C170.96,19.37,169.84,20.51,168.46,20.51 M170.74,22.46c1.65-0.82,2.73-2.54,2.73-4.47c0-2.79-2.26-5.06-5.01-5.06h-4.76v15.13
		h2.51v-5.04c0,0,1.24,0,1.85,0l3.61,5.04h3.07L170.74,22.46L170.74,22.46z"/>
	<path class="st3" d="M182.37,23.03h5.01v5.04h2.53v-9.57c0-3.74-2.26-5.81-5.03-5.81c-2.75,0-5.01,2.06-5.01,5.81v9.57h2.51V23.03
		L182.37,23.03z M187.38,20.51h-5.01v-2.02c0-2.22,1.13-3.29,2.5-3.29s2.51,1.07,2.51,3.29V20.51L187.38,20.51z"/>
	<path class="st3" d="M194.03,25.18l-1.17,1.97c0.88,0.73,1.99,1.16,3.18,1.16c2.76,0,5.01-2.07,5.01-5.78v-9.6h-2.51v9.6
		c0,2.2-1.13,3.27-2.51,3.27C195.34,25.79,194.59,25.54,194.03,25.18"/>
	<polygon class="st3" points="223.62,22.59 217.71,12.93 215.83,12.93 215.83,28.06 218.09,28.06 218.09,18.4 223.98,28.06 
		225.88,28.06 225.88,12.93 223.62,12.93 223.62,22.59 	"/>
	<path class="st3" d="M234.51,23.03h5.01v5.04h2.53v-9.57c0-3.74-2.26-5.81-5.04-5.81c-2.75,0-5.01,2.06-5.01,5.81v9.57h2.51V23.03
		L234.51,23.03z M239.52,20.51h-5.01v-2.02c0-2.22,1.13-3.29,2.51-3.29c1.38,0,2.51,1.07,2.51,3.29V20.51L239.52,20.51z"/>
	<polygon class="st3" points="269.37,28.06 269.37,12.93 267.31,12.93 263.09,20.89 258.87,12.93 256.82,12.93 256.82,28.06 
		259.21,28.06 259.21,18.94 262.84,25.79 263.34,25.79 266.98,18.94 266.98,28.06 269.37,28.06 	"/>
	<polygon class="st3" points="278,25.54 275.5,25.54 275.5,28.06 283.01,28.06 283.01,25.54 280.51,25.54 280.51,15.45 
		283.01,15.45 283.01,12.93 275.5,12.93 275.5,15.45 278,15.45 278,25.54 	"/>
	<path class="st3" d="M291.66,23.03h5.01v5.04h2.53v-9.57c0-3.74-2.26-5.81-5.03-5.81c-2.76,0-5.01,2.06-5.01,5.81v9.57h2.51V23.03
		L291.66,23.03z M296.67,20.51h-5.01v-2.02c0-2.22,1.13-3.29,2.51-3.29c1.38,0,2.51,1.07,2.51,3.29V20.51L296.67,20.51z"/>
	<path class="st3" d="M310.09,20.51h-2.26v-5.06c0,0,2.01,0,2.26,0c1.38,0,2.51,1.13,2.51,2.54
		C312.6,19.37,311.47,20.51,310.09,20.51 M312.37,22.46c1.65-0.82,2.73-2.54,2.73-4.47c0-2.79-2.26-5.06-5.01-5.06h-4.76v15.13h2.51
		v-5.04c0,0,1.24,0,1.85,0l3.61,5.04h3.07L312.37,22.46L312.37,22.46z"/>
	<polygon class="st3" points="321.5,28.06 329.01,28.06 329.01,25.54 324,25.54 324,21.01 329.01,21.01 329.01,18.49 324,18.49 
		324,15.45 329.01,15.45 329.01,12.93 321.5,12.93 321.5,28.06 	"/>
	<path class="st3" d="M352.56,23.57c0-4.65-7.13-3.97-7.13-6.67c0-0.91,0.93-1.72,2.44-1.72c1.19,0,2.46,0.61,3.52,1.32l0.79-2
		c-1.56-1.22-2.71-1.81-4.4-1.81c-2.66,0-4.97,1.81-4.97,4.45c0,5.06,7.11,3.95,7.11,6.83c0,1.23-1.45,1.84-2.57,1.84
		c-1.29,0-2.53-0.52-4.04-1.34l-0.29,2.25c1.4,1.09,2.62,1.61,4.24,1.61C349.97,28.31,352.56,26.68,352.56,23.57"/>
	<polygon class="st3" points="363.74,19.51 366.74,28.31 367.24,28.31 372.52,12.93 369.95,12.93 366.99,21.73 364.03,12.93 
		361.48,12.93 362.45,15.81 360.47,21.73 357.51,12.93 354.96,12.93 360.22,28.31 360.74,28.31 363.74,19.51 	"/>
	<polygon class="st3" points="378.65,25.54 376.14,25.54 376.14,28.06 383.66,28.06 383.66,25.54 381.16,25.54 381.16,15.45 
		383.66,15.45 383.66,12.93 376.14,12.93 376.14,15.45 378.65,15.45 378.65,25.54 	"/>
	<path class="st3" d="M392.31,23.03h5.01v5.04h2.53v-9.57c0-3.74-2.26-5.81-5.04-5.81c-2.75,0-5.01,2.06-5.01,5.81v9.57h2.51V23.03
		L392.31,23.03z M397.32,20.51h-5.01v-2.02c0-2.22,1.13-3.29,2.51-3.29c1.38,0,2.51,1.07,2.51,3.29V20.51L397.32,20.51z"/>
	<polygon class="st3" points="408.48,15.45 408.48,28.06 410.99,28.06 410.99,15.45 415.25,15.45 415.25,12.93 404.22,12.93 
		404.22,15.45 408.48,15.45 	"/>
	<path class="st3" d="M422.05,20.51c0-2.9,0.93-5.31,2.6-5.31c1.69,0,2.62,2.4,2.62,5.31c0,2.88-0.93,5.29-2.62,5.29
		C422.98,25.79,422.05,23.39,422.05,20.51 M419.39,20.51c0,4.29,1.87,7.8,5.26,7.8c3.39,0,5.28-3.52,5.28-7.8
		c0-4.29-1.89-7.83-5.28-7.83C421.26,12.68,419.39,16.22,419.39,20.51L419.39,20.51z"/>
	<polygon class="st3" points="442.08,19.51 445.09,28.31 445.58,28.31 450.87,12.93 448.29,12.93 445.34,21.73 442.38,12.93 
		439.83,12.93 440.8,15.81 438.81,21.73 435.85,12.93 433.3,12.93 438.56,28.31 439.08,28.31 442.08,19.51 	"/>
	<path class="st3" d="M456.99,23.03H462v5.04h2.53v-9.57c0-3.74-2.26-5.81-5.03-5.81c-2.75,0-5.01,2.06-5.01,5.81v9.57h2.51V23.03
		L456.99,23.03z M462,20.51h-5.01v-2.02c0-2.22,1.13-3.29,2.51-3.29c1.38,0,2.51,1.07,2.51,3.29V20.51L462,20.51z"/>
	<path class="st3" d="M474.49,26.47c0-1-0.84-1.84-1.83-1.84c-0.99,0-1.83,0.84-1.83,1.84c0,1,0.84,1.84,1.83,1.84
		C473.66,28.31,474.49,27.47,474.49,26.47"/>
	<path class="st3" d="M328.38,28.01c-0.59,0-2.6,1.21-2.6,2.67c0,1.46,0.92,1.56,2.68,1.02c0.33,0.63,0.58,1.01,0.58,1.01
		c-1.16,0.4-5.37,1.58-5.24-1.64c0.12-2.89,5.08-4.38,5.08-4.38L328.38,28.01L328.38,28.01z"/>
	<path class="st3" d="M463.95,28.01c-0.59,0-2.6,1.21-2.6,2.67c0,1.46,0.92,1.56,2.68,1.02c0.33,0.63,0.58,1.01,0.58,1.01
		c-1.17,0.4-5.37,1.58-5.24-1.64c0.12-2.89,5.08-4.38,5.08-4.38L463.95,28.01L463.95,28.01z"/>
</g>
</svg>
